name Walk3.mot
datacolumns 19
datarows 27
range 1.55500000 1.58100000
endheader

                time	   L_ground_force_vx	   L_ground_force_vy	   L_ground_force_vz	   L_ground_force_px	   L_ground_force_py	   L_ground_force_pz	   R_ground_force_vx	   R_ground_force_vy	   R_ground_force_vz	   R_ground_force_px	   R_ground_force_py	   R_ground_force_pz	   L_ground_torque_x	   L_ground_torque_y	   L_ground_torque_z	   R_ground_torque_x	   R_ground_torque_y	   R_ground_torque_z	
          1.55500000	          0.00000000	          0.00000000	          0.00000000	          0.00000000	          0.00000000	          0.00000000	          0.00000000	          0.00000000	          0.00000000	          0.00000000	          0.00000000	          0.00000000	          0.00000000	          0.00000000	          0.00000000	          0.00000000	          0.00000000	          0.00000000	
          1.55600000	          0.00000000	          0.00000000	          0.00000000	          0.00000000	          0.00000000	          0.00000000	         -6.28853398	         12.14639980	          0.44516966	         -0.30144966	          0.00000000	          0.37331145	          0.00000000	          0.00000000	          0.00000000	          0.00000000	         -0.00858411	          0.00000000	
          1.55700000	          0.00000000	          0.00000000	          0.00000000	          0.00000000	          0.00000000	          0.00000000	         -7.48782696	         20.68501934	          0.50984133	         -0.29816483	          0.00000000	          0.36331990	          0.00000000	          0.00000000	          0.00000000	          0.00000000	         -0.02780330	          0.00000000	
          1.55800000	          0.00000000	          0.00000000	          0.00000000	          0.00000000	          0.00000000	          0.00000000	         -9.43956255	         34.59217048	          0.65145077	         -0.29530778	          0.00000000	          0.35913930	          0.00000000	          0.00000000	          0.00000000	          0.00000000	         -0.02232677	          0.00000000	
          1.55900000	          0.00000000	          0.00000000	          0.00000000	          0.00000000	          0.00000000	          0.00000000	        -12.17971304	         56.83156560	          0.95649994	         -0.29340359	          0.00000000	          0.35679740	          0.00000000	          0.00000000	          0.00000000	          0.00000000	         -0.00741660	          0.00000000	
          1.56000000	          0.00000000	          0.00000000	          0.00000000	          0.00000000	          0.00000000	          0.00000000	        -15.43198121	         89.63676491	          1.52218305	         -0.29232810	          0.00000000	          0.35515550	          0.00000000	          0.00000000	          0.00000000	          0.00000000	          0.01341483	          0.00000000	
          1.56100000	          0.00000000	          0.00000000	          0.00000000	          0.00000000	          0.00000000	          0.00000000	        -18.62310772	        133.71664740	          2.48237398	         -0.29172333	          0.00000000	          0.35401461	          0.00000000	          0.00000000	          0.00000000	          0.00000000	          0.03708771	          0.00000000	
          1.56200000	          0.00000000	          0.00000000	          0.00000000	          0.00000000	          0.00000000	          0.00000000	        -21.00904051	        187.52626150	          4.02567620	         -0.29134579	          0.00000000	          0.35331720	          0.00000000	          0.00000000	          0.00000000	          0.00000000	          0.05758709	          0.00000000	
          1.56300000	          0.00000000	          0.00000000	          0.00000000	          0.00000000	          0.00000000	          0.00000000	        -21.93348608	        247.10878966	          6.35431921	         -0.29108314	          0.00000000	          0.35292178	          0.00000000	          0.00000000	          0.00000000	          0.00000000	          0.06739410	          0.00000000	
          1.56400000	          0.00000000	          0.00000000	          0.00000000	          0.00000000	          0.00000000	          0.00000000	        -21.12053832	        306.84122480	          9.58341655	         -0.29088280	          0.00000000	          0.35264509	          0.00000000	          0.00000000	          0.00000000	          0.00000000	          0.06329900	          0.00000000	
          1.56500000	          0.00000000	          0.00000000	          0.00000000	          0.00000000	          0.00000000	          0.00000000	        -18.81704829	        360.88010283	         13.64350657	         -0.29071061	          0.00000000	          0.35235883	          0.00000000	          0.00000000	          0.00000000	          0.00000000	          0.04789323	          0.00000000	
          1.56600000	          0.00000000	          0.00000000	          0.00000000	          0.00000000	          0.00000000	          0.00000000	        -15.69662174	        404.65426820	         18.27065094	         -0.29053786	          0.00000000	          0.35201482	          0.00000000	          0.00000000	          0.00000000	          0.00000000	          0.02451761	          0.00000000	
          1.56700000	          0.00000000	          0.00000000	          0.00000000	          0.00000000	          0.00000000	          0.00000000	        -12.58537863	        435.74542395	         23.09811158	         -0.29033803	          0.00000000	          0.35161492	          0.00000000	          0.00000000	          0.00000000	          0.00000000	         -0.00699889	          0.00000000	
          1.56800000	          0.00000000	          0.00000000	          0.00000000	          0.00000000	          0.00000000	          0.00000000	        -10.16329502	        453.93510070	         27.77459612	         -0.29008736	          0.00000000	          0.35118359	          0.00000000	          0.00000000	          0.00000000	          0.00000000	         -0.04849516	          0.00000000	
          1.56900000	          0.00000000	          0.00000000	          0.00000000	          0.00000000	          0.00000000	          0.00000000	         -8.79332446	        460.69225448	         32.03594542	         -0.28976426	          0.00000000	          0.35075621	          0.00000000	          0.00000000	          0.00000000	          0.00000000	         -0.09756676	          0.00000000	
          1.57000000	          0.00000000	          0.00000000	          0.00000000	          0.00000000	          0.00000000	          0.00000000	         -8.51715660	        458.53379904	         35.72624405	         -0.28934374	          0.00000000	          0.35037685	          0.00000000	          0.00000000	          0.00000000	          0.00000000	         -0.14573722	          0.00000000	
          1.57100000	          0.00000000	          0.00000000	          0.00000000	          0.00000000	          0.00000000	          0.00000000	         -9.15624198	        450.48764031	         38.79379422	         -0.28880230	          0.00000000	          0.35009191	          0.00000000	          0.00000000	          0.00000000	          0.00000000	         -0.18260037	          0.00000000	
          1.57200000	          0.00000000	          0.00000000	          0.00000000	          0.00000000	          0.00000000	          0.00000000	        -10.44560610	        439.62942902	         41.26782875	         -0.28814449	          0.00000000	          0.34994171	          0.00000000	          0.00000000	          0.00000000	          0.00000000	         -0.20107998	          0.00000000	
          1.57300000	          0.00000000	          0.00000000	          0.00000000	          0.00000000	          0.00000000	          0.00000000	        -12.14488575	        428.66610527	         43.21950914	         -0.28741835	          0.00000000	          0.34995325	          0.00000000	          0.00000000	          0.00000000	          0.00000000	         -0.20164572	          0.00000000	
          1.57400000	          0.00000000	          0.00000000	          0.00000000	          0.00000000	          0.00000000	          0.00000000	        -14.09008502	        419.65399830	         44.72477915	         -0.28669039	          0.00000000	          0.35011136	          0.00000000	          0.00000000	          0.00000000	          0.00000000	         -0.19397096	          0.00000000	
          1.57500000	          0.00000000	          0.00000000	          0.00000000	          0.00000000	          0.00000000	          0.00000000	        -16.19486391	        413.87475599	         45.84087914	         -0.28601316	          0.00000000	          0.35034672	          0.00000000	          0.00000000	          0.00000000	          0.00000000	         -0.19299438	          0.00000000	
          1.57600000	          0.00000000	          0.00000000	          0.00000000	          0.00000000	          0.00000000	          0.00000000	        -18.43696918	        411.85725462	         46.59237473	         -0.28541760	          0.00000000	          0.35057774	          0.00000000	          0.00000000	          0.00000000	          0.00000000	         -0.21076486	          0.00000000	
          1.57700000	          0.00000000	          0.00000000	          0.00000000	          0.00000000	          0.00000000	          0.00000000	        -20.84124461	        413.56414571	         46.97263765	         -0.28491086	          0.00000000	          0.35073407	          0.00000000	          0.00000000	          0.00000000	          0.00000000	         -0.25213924	          0.00000000	
          1.57800000	          0.00000000	          0.00000000	          0.00000000	          0.00000000	          0.00000000	          0.00000000	        -23.45784284	        418.61501534	         46.96708036	         -0.28446859	          0.00000000	          0.35077698	          0.00000000	          0.00000000	          0.00000000	          0.00000000	         -0.31750124	          0.00000000	
          1.57900000	          0.00000000	          0.00000000	          0.00000000	          0.00000000	          0.00000000	          0.00000000	        -26.34587267	        426.39798547	         46.57797819	         -0.28404491	          0.00000000	          0.35074935	          0.00000000	          0.00000000	          0.00000000	          0.00000000	         -0.40483725	          0.00000000	
          1.58000000	          0.00000000	          0.00000000	          0.00000000	          0.00000000	          0.00000000	          0.00000000	        -29.56550578	        436.14095010	         45.83825564	         -0.28360008	          0.00000000	          0.35072989	          0.00000000	          0.00000000	          0.00000000	          0.00000000	         -0.50772907	          0.00000000	
          1.58100000	          0.00000000	          0.00000000	          0.00000000	          0.00000000	          0.00000000	          0.00000000	        -33.17334790	        447.01967865	         44.81396571	         -0.28311875	          0.00000000	          0.35073499	          0.00000000	          0.00000000	          0.00000000	          0.00000000	         -0.61411180	          0.00000000	
